<?xml version="1.0" encoding="UTF-8"?>
<svg version="1.1" viewBox="0 0 937 892" width="937" height="892" xmlns="http://www.w3.org/2000/svg">
<path transform="translate(457,20)" d="m0 0h46l26 2 30 4 28 6 25 7 18 6 20 8 28 13 24 14 17 11 18 13 16 13 10 9 8 7 17 16 12 13 10 11 9 11 13 17 10 14 11 18 12 21 10 21 10 25 3 8 6 19 8 32 5 31 2 18 1 15v56l-3 32-5 30-6 26-10 32-10 24-7 16-12 22-14 23-12 17-11 14-9 11-9 10-5 7-6 5-5 5-5 6-8 7-13 12-11 9-15 12-17 12-17 11-23 13-23 11-28 11-28 9-30 7-33 5-22 2h-66l-30-3-25-4-30-7-36-12-15-6-24-11-22-12-16-10-16-11-12-9-16-13-15-13-15-15-5-4-7-8-11-12-9-11-12-15-14-20-11-18-10-18-8-16-10-23-9-25-8-29-5-24-4-28-2-23v-59l3-32 5-30 9-36 8-24 11-26 11-23 14-24 12-18 11-15 8-10 11-13 11-12 14-15 16-15 10-9 14-11 13-10 13-9 19-12 18-10 16-8 20-9 21-8 31-9 32-7 30-4zm2 55-30 3-27 5-27 7-31 11-33 16-19 11-12 8-16 12-14 11-11 10-8 7-20 20-9 11-8 9-12 16-10 15-11 18-13 25-11 27-7 22-6 24-4 22-3 24-1 15v37l2 29 4 26 6 26 7 24 10 25 13 27 10 17 10 15 14 15 22 22 10 8 11 10 16 11 23 12 13 6 28 12 28 10 23 7 28 6 28 4 14 1h33l29-3 25-5 25-7 21-8 25-13 12-9 13-11 8-8 9-11 12-17 7-12 8-19 5-19 2-14v-26l-3-15-4-12-7-13-7-9-6-7-10-8-13-8-15-7-15-5-15-4-31-6-55-8-40-6-33-6-20-5-19-6-17-6-15-7-17-9-16-11-9-7-10-9-9-8-7-8-11-14-10-16-8-16-7-19-4-15-3-16-2-22 1-25 3-19 6-21 9-21 10-18 12-17 9-11 10-11 2-6 13-8 22-12 31-13 22-7 24-6 30-5 20-2 23-1h13l24 1 27 3 23 4 27 7 24 8 23 10 22 11 18 11 6 4-11-3-19-4-18-2-26-1h-44l-39 2-35 4-28 5-20 5-26 8-26 11-17 9-18 13-12 11-11 11-6 8-10 13-10 18-5 13-3 13v19l5 17 7 12 7 9 11 12 11 10 10 7 13 8 25 12 21 7 25 6 23 4 38 4 18 1h40l51-3 59-2h61l24 2 25 4 20 5 17 6 16 8 10 7 8 7 5 6 4-1v-12l-3-36-5-30-8-31-7-20-10-24-10-19-11-19-8-12-8-11-11-14-12-14-11-12-17-17-11-9-9-8-13-10-5-3-11-8-18-11-27-14-16-7-28-10-27-7-27-5-30-3z" fill="#03BFFD"/>
</svg>
